<?xml version="1.0" standalone="no"?>
<!DOCTYPE svg PUBLIC "-//W3C//DTD SVG 20010904//EN"
 "http://www.w3.org/TR/2001/REC-SVG-20010904/DTD/svg10.dtd">
<svg version="1.0" xmlns="http://www.w3.org/2000/svg"
 width="412.000000pt" height="412.000000pt" viewBox="0 0 412.000000 412.000000"
 preserveAspectRatio="xMidYMid meet">
<metadata>
Created by potrace 1.14, written by Peter Selinger 2001-2017
</metadata>
<g transform="translate(0.000000,412.000000) scale(0.100000,-0.100000)"
fill="#000000" stroke="none">
<path d="M2003 3350 c-263 -25 -472 -158 -610 -387 l-60 -101 -104 209 -104
209 -277 0 c-172 0 -278 -4 -278 -10 0 -5 212 -353 471 -772 259 -420 474
-769 476 -776 7 -16 -43 -92 -60 -92 -6 0 -40 46 -74 103 -58 96 -61 105 -57
152 6 59 -16 102 -62 123 -69 33 -79 39 -78 55 1 9 -1 15 -5 12 -4 -2 -30 33
-58 78 -27 45 -157 255 -288 467 -131 212 -276 447 -323 523 l-84 137 -40 0
c-34 0 -39 -3 -34 -17 6 -15 604 -974 738 -1183 l48 -74 -24 -26 c-51 -54 -61
-88 -61 -205 0 -100 3 -116 28 -170 71 -150 157 -219 277 -218 39 0 81 7 104
17 32 13 41 14 47 4 58 -101 416 -661 423 -662 5 0 14 8 22 19 11 18 3 35 -74
160 -48 77 -140 227 -205 333 l-119 192 38 45 37 46 17 -28 c155 -254 365
-591 375 -601 10 -11 22 1 64 72 29 47 54 86 56 86 2 0 3 -48 2 -108 -2 -94
-5 -111 -25 -139 -19 -27 -21 -35 -11 -57 15 -33 24 -33 46 0 l16 26 14 -26
c19 -37 85 -76 129 -76 28 0 44 8 70 34 51 51 46 100 -17 173 -19 23 -29 48
-34 87 -7 53 -6 57 40 131 52 82 68 91 41 22 -27 -72 2 -120 73 -120 46 0 94
31 119 76 28 52 23 185 -11 266 -14 36 -23 69 -20 75 44 82 209 332 211 321 2
-8 -9 -53 -23 -101 -44 -141 -22 -225 73 -282 39 -23 59 -27 119 -27 85 0 120
20 142 82 13 36 12 43 -5 79 l-19 39 -68 3 c-48 2 -70 7 -73 17 -4 8 4 43 16
77 12 35 24 97 27 138 4 64 1 85 -21 147 l-27 73 36 55 c30 48 39 55 58 49 45
-15 146 -6 192 16 54 26 110 87 137 148 33 73 13 221 -37 280 l-24 29 214 344
c118 189 215 347 215 351 0 4 -18 8 -40 8 -38 0 -42 -3 -76 -57 -20 -32 -46
-74 -59 -93 -12 -19 -59 -96 -105 -170 -142 -232 -194 -315 -201 -324 -6 -6
-89 17 -107 30 -2 1 18 38 46 81 142 225 322 520 322 527 0 3 -125 6 -278 6
l-278 0 -74 -149 -74 -150 -19 32 c-11 18 -58 70 -106 117 -174 172 -397 245
-668 220z m315 -60 c241 -68 444 -256 498 -460 24 -91 19 -117 -26 -162 -39
-39 -39 -41 -25 -69 14 -26 14 -30 -5 -49 -13 -13 -34 -20 -57 -20 -21 -1 -56
-7 -78 -15 -22 -8 -62 -18 -90 -21 -65 -9 -82 -17 -130 -68 -22 -24 -47 -45
-54 -48 -12 -3 -11 -11 8 -41 12 -20 34 -46 48 -57 14 -10 23 -25 21 -31 -5
-14 -85 65 -93 92 -5 14 -16 19 -41 19 -30 0 -34 -3 -34 -25 0 -49 45 -117
105 -159 11 -8 17 -17 13 -21 -4 -4 -17 0 -30 9 -12 9 -25 16 -28 16 -3 0 -4
-31 -2 -69 2 -39 -1 -77 -7 -87 -8 -15 -10 2 -11 73 0 81 -3 99 -29 150 -16
32 -30 64 -33 71 -3 11 -9 9 -27 -5 l-24 -20 16 -115 c10 -63 17 -138 17 -166
0 -51 0 -52 31 -52 17 0 28 -4 24 -10 -15 -24 -133 -1 -173 34 -52 47 -51 145
4 253 13 26 24 50 24 53 0 9 -62 30 -72 24 -4 -3 -17 -23 -28 -44 -89 -174
-56 -358 71 -398 124 -40 124 -40 98 -41 -42 -2 -126 28 -159 55 -17 15 -39
43 -49 63 l-19 36 -9 -30 c-4 -16 -8 -58 -8 -92 0 -86 27 -114 160 -164 17 -7
24 -13 17 -16 -31 -12 -154 50 -177 89 -20 35 -23 137 -5 198 20 68 11 179
-21 262 -13 33 -22 36 -82 29 l-48 -6 22 -24 c29 -31 59 -112 59 -161 0 -22
-7 -88 -16 -147 -9 -59 -14 -127 -11 -150 5 -46 48 -113 73 -113 7 0 14 -4 14
-10 0 -5 8 -10 18 -10 10 0 22 -3 26 -7 4 -4 31 -15 59 -24 29 -9 50 -20 47
-25 -6 -11 -6 -11 -102 27 -120 48 -158 98 -158 206 1 32 7 87 15 123 25 113
17 195 -23 258 -20 31 -24 24 -62 -134 -18 -71 -47 -190 -65 -265 -40 -161
-62 -213 -123 -280 -109 -121 -252 -140 -357 -47 -161 141 -171 496 -15 508
47 4 60 0 74 -22 30 -47 29 -70 -9 -128 -41 -63 -45 -112 -16 -176 36 -80 107
-110 182 -77 74 33 126 105 148 205 8 37 71 420 71 433 0 3 -14 5 -31 5 -22 0
-32 5 -36 20 -6 23 -8 24 -34 9 -16 -8 -25 -7 -40 7 -10 9 -19 21 -19 26 0 6
-16 28 -35 50 -77 91 -116 311 -81 461 41 173 161 330 327 425 62 35 183 77
261 91 83 15 272 5 356 -19z m845 -677 c61 -22 121 -73 149 -127 31 -59 31
-165 0 -224 -24 -44 -89 -98 -145 -119 -38 -14 -104 -15 -132 -3 -25 11 -25
11 60 13 60 2 76 7 115 34 82 56 110 106 110 192 -1 98 -68 185 -167 216 -66
21 -71 21 -144 12 -40 -6 -66 -17 -92 -38 -63 -52 -42 -96 40 -85 173 24 220
16 262 -43 24 -33 29 -113 10 -154 -16 -36 -82 -70 -119 -62 -17 4 -30 11 -30
17 0 5 12 7 29 3 59 -13 121 45 121 113 0 35 -37 92 -70 109 -31 16 -122 17
-174 2 -54 -15 -104 -4 -118 27 -41 89 155 167 295 117z m-670 -238 c-21 -41
-41 -75 -46 -75 -4 0 -19 12 -32 26 l-24 26 27 36 c25 32 70 61 99 62 8 0 -2
-29 -24 -75z m613 67 c7 -4 -2 -27 -26 -64 l-36 -58 -42 31 c-23 17 -42 34
-42 38 0 17 32 50 53 54 38 7 81 7 93 -1z m89 -100 c-9 -37 -34 -62 -62 -62
-12 0 -23 2 -23 5 0 3 16 31 36 62 31 49 38 54 46 39 5 -10 7 -29 3 -44z
m-215 -18 c35 -23 51 -44 35 -44 -12 0 -75 46 -79 58 -8 17 -1 15 44 -14z
m-69 -81 c64 -54 69 -78 5 -31 -24 18 -42 36 -39 41 6 10 10 9 34 -10z m8
-127 c-11 -17 -25 -41 -31 -53 l-11 -22 -46 26 c-25 15 -48 28 -50 29 -1 2 14
30 34 63 l37 60 44 -36 44 -37 -21 -30z m-1104 -123 c-4 -29 -10 -53 -15 -53
-18 0 -19 37 -3 114 18 79 18 80 21 36 2 -25 1 -69 -3 -97z m985 37 c39 -20
60 -40 41 -40 -18 0 -80 35 -85 48 -7 16 -2 15 44 -8z m-49 -92 c35 -20 50
-38 32 -38 -14 0 -93 45 -93 52 0 14 21 9 61 -14z m176 -15 c28 -43 24 -159
-10 -256 -32 -90 -33 -105 -11 -136 15 -21 21 -23 76 -17 69 8 88 -2 88 -46 0
-70 -56 -105 -138 -88 -95 21 -152 78 -152 154 0 21 12 76 26 122 14 47 25
104 24 127 -3 61 -1 69 11 61 17 -10 4 -138 -20 -204 -40 -106 -20 -177 60
-217 89 -43 140 -37 164 19 20 49 5 62 -63 53 -78 -10 -102 8 -102 78 0 28 9
76 20 104 11 29 23 84 26 122 6 59 4 76 -14 110 -24 46 -12 56 15 14z m-180
-55 c9 -10 -14 -54 -101 -194 l-112 -181 -31 56 -30 56 96 156 96 157 36 -18
c19 -10 40 -25 46 -32z m-707 -20 c14 -10 55 -28 91 -41 l67 -23 -15 -29 c-9
-17 -17 -31 -18 -33 -1 -1 -28 7 -59 19 -64 25 -116 76 -116 115 0 27 3 26 50
-8z m-702 -163 c28 -44 49 -81 48 -83 -10 -9 -61 14 -86 40 -26 26 -30 37 -30
86 0 65 0 65 68 -43z m689 -132 c21 -10 39 -18 41 -19 2 -1 -5 -18 -15 -38
l-19 -36 -27 55 c-15 30 -25 55 -22 55 2 0 21 -8 42 -17z m458 -38 c14 -25 25
-51 23 -57 -4 -11 -48 55 -48 73 0 5 -4 9 -10 9 -5 0 -10 5 -10 10 0 23 20 7
45 -35z m-49 -121 c8 -20 13 -39 10 -42 -3 -3 -7 -3 -8 -1 -21 34 -48 91 -48
99 0 19 30 -17 46 -56z m-58 -155 c-23 -38 -45 -69 -48 -69 -3 0 -4 46 -2 103
2 71 8 109 19 126 l16 25 29 -58 29 -57 -43 -70z m191 79 c28 -81 28 -172 1
-216 -25 -40 -65 -58 -98 -42 -22 10 -24 15 -17 53 4 23 10 69 14 102 6 53 8
57 15 32 8 -26 6 -48 -10 -133 -6 -34 8 -47 43 -38 50 13 67 108 38 217 -27
103 -18 119 14 25z m-270 -197 c1 -99 4 -188 8 -198 3 -10 21 -35 40 -56 35
-39 40 -64 22 -100 -16 -29 -28 -37 -62 -37 -37 0 -82 32 -104 73 -20 37 -31
285 -15 327 7 18 10 -17 10 -120 0 -166 10 -202 64 -244 42 -31 52 -32 78 -6
27 27 25 62 -6 91 -48 44 -54 74 -54 262 0 149 3 187 16 187 1 0 2 -81 3 -179z"/>
<path d="M1935 3285 c-33 -6 -82 -20 -108 -29 -45 -16 -157 -73 -167 -85 -3
-3 -21 -18 -40 -32 -58 -44 -75 -61 -124 -128 -84 -115 -116 -212 -116 -352 0
-110 17 -187 55 -257 49 -90 45 -87 153 -88 131 -1 325 18 427 40 72 16 231
61 270 76 11 4 36 13 55 20 88 30 136 52 317 144 13 6 23 14 23 19 0 4 4 7 10
7 11 0 39 22 87 69 33 32 35 36 29 83 -10 75 -41 148 -96 226 -102 145 -262
248 -450 288 -79 17 -243 17 -325 -1z"/>
<path d="M2703 2608 c-13 -6 -23 -14 -23 -18 0 -3 -16 -12 -35 -20 -19 -8 -35
-17 -35 -21 0 -4 -10 -10 -22 -14 -13 -3 -18 -9 -11 -11 7 -3 21 -1 32 5 11 6
38 11 61 11 34 0 70 10 88 25 5 4 -21 55 -27 54 -3 0 -16 -5 -28 -11z"/>
<path d="M2285 2418 c-33 -11 -69 -24 -80 -28 -48 -18 -93 -30 -108 -30 -19 0
-20 -2 -11 -24 9 -24 101 -22 128 3 12 10 44 26 71 36 57 19 95 41 95 55 0 14
-26 11 -95 -12z"/>
<path d="M1970 2315 c-18 -13 -37 -26 -42 -27 -4 -2 1 -21 12 -43 11 -21 20
-45 20 -52 0 -7 5 -13 10 -13 6 0 10 6 10 14 0 8 15 44 34 80 34 65 34 66 12
66 -12 0 -37 -11 -56 -25z m14 -40 c-4 -8 -11 -12 -16 -9 -6 4 -5 10 3 15 19
12 19 11 13 -6z"/>
<path d="M1835 2310 c-11 -5 -59 -9 -107 -9 -89 -1 -128 -16 -128 -48 0 -15
79 -19 96 -5 16 14 84 33 94 27 17 -11 94 6 120 26 l25 19 -40 -1 c-22 0 -49
-4 -60 -9z"/>
<path d="M1520 2280 c0 -22 20 -26 38 -8 19 19 14 28 -13 28 -18 0 -25 -5 -25
-20z"/>
<path d="M2126 2231 c-42 -83 -55 -161 -34 -200 17 -31 57 -60 88 -63 20 -2
24 1 22 17 -1 11 -7 74 -13 140 -5 66 -14 134 -18 150 -8 30 -8 29 -45 -44z
m28 -220 c-7 -8 -34 69 -34 97 0 16 6 44 12 63 12 32 13 30 19 -61 4 -52 5
-97 3 -99z"/>
<path d="M1705 2237 c-37 -21 -40 -26 -46 -77 -4 -30 -12 -84 -18 -120 -6 -36
-15 -96 -21 -135 -23 -168 -64 -268 -132 -317 -98 -72 -199 -54 -249 44 -29
57 -34 112 -14 163 9 25 20 45 24 45 4 0 13 12 20 26 17 39 -13 88 -57 92 -44
4 -80 -37 -102 -118 -22 -82 30 -272 92 -332 60 -60 90 -73 163 -73 82 1 124
21 190 91 45 47 75 100 100 177 17 55 54 209 65 277 4 25 20 89 34 144 14 54
26 107 26 117 0 25 -24 23 -75 -4z"/>
<path d="M2012 650 c-11 -17 -10 -26 5 -50 l17 -29 17 26 c16 24 16 28 2 50
-19 28 -25 29 -41 3z"/>
</g>
</svg>
